<?xml version="1.0" encoding="utf-8"?>
<!-- Generator: Adobe Illustrator 19.2.1, SVG Export Plug-In . SVG Version: 6.00 Build 0)  -->
<svg version="1.1" id="Layer_1" xmlns="http://www.w3.org/2000/svg" xmlns:xlink="http://www.w3.org/1999/xlink" x="0px" y="0px"
	 viewBox="0 0 486.9 110.7" style="enable-background:new 0 0 486.9 110.7;" xml:space="preserve">
<style type="text/css">
	.st0{fill:#333333;}
</style>
<g>
	<path class="st0" d="M133.4,86.9h-19.3V51.8L99,69.1l-15-17V87H64.7V24.4h20.2l14.2,16.3l14.3-16.3h20V86.9z M179.6,22.9
		c22.2,0,29.9,7.7,29.9,29.9v5.8c0,22.2-7.7,29.9-29.9,29.9h-8.2c-22.2,0-29.9-7.7-29.9-29.9v-5.8c0-22.2,7.7-29.9,29.9-29.9H179.6z
		 M172.7,41.3c-9.8,0-11.9,2.2-11.9,11.9v4.9c0,9.8,2.1,11.9,11.9,11.9h5.6c9.8,0,11.9-2.1,11.9-11.9v-4.9c0-9.7-2.1-11.9-11.9-11.9
		H172.7z M266.1,86.9l-29.2-33.4v33.4h-19.3V24.4h19.6l26.1,29.7V24.4h19.3V87h-16.5V86.9z M324.7,24.4c22.2,0,32.6,7.7,32.6,29.9
		V57c0,22.2-10.4,29.9-32.6,29.9h-32.8V24.4H324.7z M311.2,68.7h12.1c10.6,0,14.7-3.3,14.7-12.1v-1.8c0-8.8-4-12.1-14.7-12.1h-12.1
		V68.7z M380.1,76.6l-4,10.4h-20.3l25.3-62.6h24L430.4,87h-20.6l-4-10.4H380.1L380.1,76.6z M393.1,43.1l-5.9,15.3H399L393.1,43.1z
		 M461.2,66.6v20.3h-19.3V66.6l-25.5-42.2h22.4l12.8,21.9l12.8-21.9h22.5L461.2,66.6z M0,110.7L44.8,0h9.3L9.2,110.7
		C9.2,110.7,0,110.7,0,110.7z"/>
</g>
</svg>
