<svg xmlns="http://www.w3.org/2000/svg" viewBox="62.6 340.7 486.9 110.7"><g fill="#FFF"><path d="M196 427.5h-19.3v-35.1l-15.1 17.3-15-17v34.9h-19.3V365h20.2l14.2 16.3L176 365h20v62.5zM242.2 363.5c22.2 0 29.9 7.7 29.9 29.9v5.8c0 22.2-7.7 29.9-29.9 29.9H234c-22.2 0-29.9-7.7-29.9-29.9v-5.8c0-22.2 7.7-29.9 29.9-29.9h8.2zm-6.9 18.4c-9.8 0-11.9 2.2-11.9 11.9v4.9c0 9.8 2.1 11.9 11.9 11.9h5.6c9.8 0 11.9-2.1 11.9-11.9v-4.9c0-9.7-2.1-11.9-11.9-11.9h-5.6zM328.7 427.5l-29.2-33.4v33.4h-19.3V365h19.6l26.1 29.7V365h19.3v62.6h-16.5zM387.3 365c22.2 0 32.6 7.7 32.6 29.9v2.7c0 22.2-10.4 29.9-32.6 29.9h-32.8V365h32.8zm-13.5 44.3h12.1c10.6 0 14.7-3.3 14.7-12.1v-1.8c0-8.8-4-12.1-14.7-12.1h-12.1v26zM442.7 417.2l-4 10.4h-20.3l25.3-62.6h24l25.3 62.6h-20.6l-4-10.4h-25.7zm13-33.5l-5.9 15.3h11.8l-5.9-15.3zM523.8 407.2v20.3h-19.3v-20.3L479 365h22.4l12.8 21.9L527 365h22.5l-25.7 42.2zM62.6 451.3l44.8-110.7h9.3L71.8 451.3h-9.2z"/></g></svg>