<svg xmlns="http://www.w3.org/2000/svg" xmlns:xlink="http://www.w3.org/1999/xlink" viewBox="62.6 320.2 888.9 171.2"><path fill="none" d="M-57.8 177.3h1353v598.5h-1353z"/><g fill="#FFF"><path d="M196 437.4h-19.3v-35.1l-15.1 17.3-15-17v34.9h-19.3v-62.6h20.2l14.2 16.3 14.2-16.3h20l.1 62.5zM242.2 373.3c22.2 0 29.9 7.7 29.9 29.9v5.8c0 22.2-7.7 29.9-29.9 29.9H234c-22.2 0-29.9-7.7-29.9-29.9v-5.8c0-22.2 7.7-29.9 29.9-29.9h8.2zm-6.9 18.4c-9.8 0-11.9 2.2-11.9 11.9v4.9c0 9.8 2.1 11.9 11.9 11.9h5.6c9.8 0 11.9-2.1 11.9-11.9v-4.9c0-9.7-2.1-11.9-11.9-11.9h-5.6zM328.7 437.4L299.5 404v33.4h-19.3v-62.6h19.6l26.1 29.7v-29.7h19.3v62.6h-16.5zM387.3 374.8c22.2 0 32.6 7.7 32.6 29.9v2.7c0 22.2-10.4 29.9-32.6 29.9h-32.8v-62.5h32.8zm-13.5 44.4h12.1c10.6 0 14.7-3.3 14.7-12.1v-1.8c0-8.8-4-12.1-14.7-12.1h-12.1v26zM442.7 427l-4 10.4h-20.3l25.3-62.6h24l25.3 62.6h-20.6l-4-10.4h-25.7zm13-33.5l-5.9 15.3h11.8l-5.9-15.3zM523.8 417v20.3h-19.3V417L479 374.8h22.4l12.8 21.9 12.7-21.9h22.5L523.8 417zM62.6 461.2l44.8-110.7h9.3L71.8 461.2h-9.2z"/></g><image overflow="visible" width="211" height="133" xlink:href="6DFB0A3E83AFEAB9.png" transform="translate(778.33 351.274) scale(.8207)"/><path fill="#FFF" d="M662.8 349c36.1 0 52.7 16.4 52.7 52.4v7.7c0 20.3-7.3 29.4-23.8 29.4-10.2 0-16.7-3.4-20.4-9-4.6 6.4-11.2 9-20.6 9-18.7 0-27.7-9.8-27.7-29.8V403c0-20 9.1-29.8 27.6-29.8 9 0 14.8 2.3 18.6 6.6v-5.2h19v38.9c0 8.5 2.3 12.1 6.8 12.1 4.9 0 8.3-4.1 8.3-16.9v-7c0-29.6-11.5-41-41.3-41h-10.6c-29.8 0-41.3 11.4-41.3 41v8.2c0 29.6 11.5 41 41.3 41H662c8.9 0 18.8-1.2 26.3-4.2l3.6 11c-7.4 3.6-19.6 4.9-29 4.9h-12.2c-36.1 0-52.7-16.4-52.7-52.4v-8.9c0-36 16.6-52.4 52.7-52.4h12.1zm6.6 54.3c0-8.2-3.7-11.9-12-11.9h-3.5c-8.3 0-12 3.7-12 11.9v5c0 8.2 3.7 11.9 12 11.9h3.5c8.3 0 12-3.7 12-11.9v-5z"/></svg>